<svg xmlns="http://www.w3.org/2000/svg" viewBox="0 0 100 100">
  <defs>
    <linearGradient id="ballGradient" x1="0%" y1="0%" x2="100%" y2="100%">
      <stop offset="0%" style="stop-color:#1e40af;stop-opacity:1" />
      <stop offset="100%" style="stop-color:#3b82f6;stop-opacity:1" />
    </linearGradient>
    <linearGradient id="fieldGradient" x1="0%" y1="0%" x2="0%" y2="100%">
      <stop offset="0%" style="stop-color:#16a34a;stop-opacity:1" />
      <stop offset="100%" style="stop-color:#22c55e;stop-opacity:1" />
    </linearGradient>
  </defs>
  
  <!-- Field background -->
  <rect width="100" height="100" fill="url(#fieldGradient)" rx="8"/>
  
  <!-- Football -->
  <circle cx="50" cy="50" r="25" fill="url(#ballGradient)" stroke="#ffffff" stroke-width="2"/>
  
  <!-- Football pattern (pentagon and hexagon) -->
  <path d="M 50 30 L 58 38 L 54 48 L 46 48 L 42 38 Z" fill="#ffffff" opacity="0.9"/>
  <path d="M 58 38 L 66 42 L 64 52 L 54 48 L 50 40 Z" fill="#ffffff" opacity="0.7"/>
  <path d="M 42 38 L 34 42 L 36 52 L 46 48 L 50 40 Z" fill="#ffffff" opacity="0.7"/>
  <path d="M 54 48 L 64 52 L 58 62 L 50 58 L 46 52 Z" fill="#ffffff" opacity="0.8"/>
  <path d="M 46 48 L 36 52 L 42 62 L 50 58 L 54 52 Z" fill="#ffffff" opacity="0.8"/>
  
  <!-- Probability indicator (small chart icon) -->
  <circle cx="75" cy="25" r="8" fill="#fbbf24" stroke="#ffffff" stroke-width="1.5"/>
  <path d="M 71 25 L 73 23 L 75 25 L 77 23 L 79 25" stroke="#ffffff" stroke-width="1.5" fill="none" stroke-linecap="round"/>
</svg>

